<svg width="459" height="459" viewBox="0 0 459 459" fill="none" xmlns="http://www.w3.org/2000/svg">
<path d="M32.2734 8.60635C1.43437 26.536 0.717188 31.5563 0 224.48C0 412.383 2.15156 429.595 27.9703 449.677C43.7484 461.869 403.059 462.586 425.292 450.394C457.566 433.181 458.283 428.878 459 234.52C459 46.6173 456.848 29.4048 431.03 9.32351C415.252 -2.86867 53.0719 -3.58584 32.2734 8.60635ZM286.158 86.7798C327.755 95.386 355.008 122.639 362.18 160.65C367.917 190.055 351.422 232.369 329.189 244.561C314.845 251.733 314.128 253.884 324.169 261.056C342.098 273.966 349.988 295.481 352.139 337.078L355.008 376.523L314.128 378.675L272.531 380.827L278.269 291.5C272.531 234.52 245.5 244.561 178.5 303L111.5 373C111.5 373 87.4344 359.192 86 347C84.5656 334.808 97.3891 315.563 97.3891 315.563C97.3891 315.563 155.888 235.444 197.944 213.722C240 192 255.5 188.5 276.117 211.57C296.734 234.641 298.5 186 298.5 186C298.5 186 298.5 160.65 272.531 154.913C268 152 229.5 145.589 184.317 143.438L103.992 139.852L101.841 119.77C97.5375 84.6282 109.73 78.8907 183.6 78.8907C220.177 78.8907 266.794 82.4767 286.158 86.7798Z" fill="#127CEA"/>
</svg>
